<svg xmlns="http://www.w3.org/2000/svg" xmlns:xlink="http://www.w3.org/1999/xlink" width="150" zoomAndPan="magnify" viewBox="0 0 112.5 112.499997" height="150" preserveAspectRatio="xMidYMid meet" version="1.0"><path fill="#0b132b" d="M 65.792969 47.125 C 65.304688 47.125 64.867188 46.789062 64.761719 46.292969 L 55.929688 5.929688 L 47.101562 46.292969 C 46.976562 46.863281 46.414062 47.226562 45.84375 47.101562 C 45.273438 46.976562 44.910156 46.414062 45.035156 45.84375 L 54.898438 0.761719 C 55.003906 0.277344 55.433594 -0.0703125 55.929688 -0.0703125 C 56.425781 -0.0703125 56.855469 0.277344 56.964844 0.761719 L 66.824219 45.84375 C 66.949219 46.414062 66.589844 46.976562 66.019531 47.101562 C 65.941406 47.117188 65.867188 47.125 65.792969 47.125 Z M 65.792969 47.125 " fill-opacity="1" fill-rule="nonzero"/><path fill="#0b132b" d="M 55.929688 111.933594 C 55.433594 111.933594 55.003906 111.585938 54.898438 111.101562 L 45.035156 66.019531 C 44.910156 65.449219 45.273438 64.886719 45.84375 64.761719 C 46.410156 64.632812 46.976562 64.996094 47.101562 65.566406 L 55.929688 105.929688 L 64.761719 65.566406 C 64.886719 64.996094 65.453125 64.640625 66.019531 64.761719 C 66.589844 64.886719 66.949219 65.449219 66.824219 66.019531 L 56.964844 111.101562 C 56.855469 111.585938 56.425781 111.933594 55.929688 111.933594 Z M 55.929688 111.933594 " fill-opacity="1" fill-rule="nonzero"/><path fill="#0b132b" d="M 55.929688 111.933594 C 55.347656 111.933594 54.875 111.457031 54.875 110.875 L 54.875 0.984375 C 54.875 0.402344 55.347656 -0.0703125 55.929688 -0.0703125 C 56.515625 -0.0703125 56.988281 0.402344 56.988281 0.984375 L 56.988281 110.875 C 56.988281 111.457031 56.515625 111.933594 55.929688 111.933594 Z M 55.929688 111.933594 " fill-opacity="1" fill-rule="nonzero"/><path fill="#0b132b" d="M 65.792969 66.847656 C 65.515625 66.847656 65.246094 66.738281 65.046875 66.539062 L 55.929688 57.425781 L 46.816406 66.539062 C 46.5625 66.792969 46.195312 66.902344 45.84375 66.824219 L 0.761719 56.964844 C 0.277344 56.855469 -0.0703125 56.425781 -0.0703125 55.929688 C -0.0703125 55.433594 0.277344 55.003906 0.761719 54.898438 L 45.84375 45.035156 C 46.195312 44.960938 46.5625 45.066406 46.816406 45.320312 L 55.929688 54.4375 L 65.046875 45.320312 C 65.300781 45.066406 65.667969 44.960938 66.019531 45.035156 L 111.101562 54.898438 C 111.585938 55.003906 111.933594 55.433594 111.933594 55.929688 C 111.933594 56.425781 111.585938 56.855469 111.101562 56.964844 L 66.019531 66.824219 C 65.941406 66.839844 65.867188 66.847656 65.792969 66.847656 Z M 57.425781 55.929688 L 66.132812 64.636719 L 105.929688 55.929688 L 66.132812 47.222656 Z M 5.929688 55.929688 L 45.730469 64.636719 L 54.4375 55.929688 L 45.730469 47.222656 Z M 5.929688 55.929688 " fill-opacity="1" fill-rule="nonzero"/><path fill="#0b132b" d="M 110.875 56.988281 L 0.984375 56.988281 C 0.402344 56.988281 -0.0703125 56.515625 -0.0703125 55.929688 C -0.0703125 55.347656 0.402344 54.875 0.984375 54.875 L 110.875 54.875 C 111.457031 54.875 111.933594 55.347656 111.933594 55.929688 C 111.933594 56.515625 111.457031 56.988281 110.875 56.988281 Z M 110.875 56.988281 " fill-opacity="1" fill-rule="nonzero"/><path fill="#0b132b" d="M 72.921875 48.6875 C 72.753906 48.6875 72.585938 48.648438 72.425781 48.566406 C 71.910156 48.292969 71.714844 47.652344 71.988281 47.136719 L 80.15625 31.703125 L 64.722656 39.875 C 64.210938 40.144531 63.570312 39.949219 63.292969 39.433594 C 63.023438 38.917969 63.21875 38.277344 63.734375 38.007812 L 82.203125 28.230469 C 82.613281 28.011719 83.117188 28.085938 83.445312 28.414062 C 83.773438 28.742188 83.847656 29.246094 83.632812 29.65625 L 73.855469 48.128906 C 73.664062 48.484375 73.300781 48.6875 72.921875 48.6875 Z M 72.921875 48.6875 " fill-opacity="1" fill-rule="nonzero"/><path fill="#0b132b" d="M 38.941406 48.6875 C 38.5625 48.6875 38.195312 48.484375 38.007812 48.128906 L 28.230469 29.65625 C 28.011719 29.246094 28.085938 28.742188 28.414062 28.414062 C 28.742188 28.085938 29.246094 28.011719 29.65625 28.230469 L 48.128906 38.007812 C 48.640625 38.277344 48.839844 38.917969 48.566406 39.433594 C 48.292969 39.949219 47.652344 40.144531 47.136719 39.875 L 31.703125 31.703125 L 39.875 47.136719 C 40.148438 47.652344 39.949219 48.292969 39.433594 48.566406 C 39.277344 48.648438 39.109375 48.6875 38.941406 48.6875 Z M 38.941406 48.6875 " fill-opacity="1" fill-rule="nonzero"/><path fill="#0b132b" d="M 29.164062 83.753906 C 28.890625 83.753906 28.617188 83.648438 28.414062 83.445312 C 28.085938 83.117188 28.011719 82.613281 28.230469 82.203125 L 38.007812 63.734375 C 38.28125 63.21875 38.921875 63.023438 39.433594 63.292969 C 39.949219 63.566406 40.148438 64.207031 39.875 64.722656 L 31.703125 80.15625 L 47.136719 71.988281 C 47.652344 71.714844 48.292969 71.910156 48.566406 72.425781 C 48.839844 72.941406 48.640625 73.582031 48.128906 73.855469 L 29.65625 83.632812 C 29.5 83.714844 29.332031 83.753906 29.164062 83.753906 Z M 29.164062 83.753906 " fill-opacity="1" fill-rule="nonzero"/><path fill="#0b132b" d="M 82.699219 83.753906 C 82.53125 83.753906 82.359375 83.714844 82.203125 83.632812 L 63.734375 73.855469 C 63.21875 73.582031 63.023438 72.941406 63.292969 72.425781 C 63.570312 71.910156 64.210938 71.714844 64.722656 71.988281 L 80.15625 80.15625 L 71.988281 64.722656 C 71.714844 64.207031 71.910156 63.566406 72.425781 63.292969 C 72.941406 63.023438 73.582031 63.21875 73.855469 63.734375 L 83.632812 82.203125 C 83.847656 82.613281 83.773438 83.117188 83.445312 83.445312 C 83.242188 83.648438 82.972656 83.753906 82.699219 83.753906 Z M 82.699219 83.753906 " fill-opacity="1" fill-rule="nonzero"/><path fill="#0b132b" d="M 102.496094 45.714844 C 102.019531 45.714844 101.585938 45.390625 101.46875 44.90625 C 99.457031 36.558594 95.164062 28.914062 89.054688 22.808594 C 82.945312 16.699219 75.304688 12.40625 66.953125 10.390625 C 66.386719 10.253906 66.039062 9.683594 66.175781 9.117188 C 66.308594 8.550781 66.882812 8.203125 67.449219 8.335938 C 76.175781 10.441406 84.164062 14.929688 90.546875 21.3125 C 96.933594 27.695312 101.417969 35.683594 103.523438 44.414062 C 103.660156 44.980469 103.3125 45.550781 102.746094 45.6875 C 102.660156 45.707031 102.578125 45.714844 102.496094 45.714844 Z M 102.496094 45.714844 " fill-opacity="1" fill-rule="nonzero"/><path fill="#0b132b" d="M 9.363281 45.714844 C 9.28125 45.714844 9.199219 45.707031 9.117188 45.6875 C 8.550781 45.550781 8.199219 44.980469 8.335938 44.414062 C 10.441406 35.683594 14.929688 27.695312 21.3125 21.3125 C 27.695312 14.929688 35.683594 10.441406 44.414062 8.335938 C 44.984375 8.203125 45.550781 8.550781 45.6875 9.117188 C 45.824219 9.683594 45.476562 10.253906 44.90625 10.390625 C 36.558594 12.40625 28.914062 16.699219 22.808594 22.808594 C 16.699219 28.914062 12.40625 36.558594 10.390625 44.90625 C 10.273438 45.390625 9.84375 45.714844 9.363281 45.714844 Z M 9.363281 45.714844 " fill-opacity="1" fill-rule="nonzero"/><path fill="#0b132b" d="M 44.660156 103.554688 C 44.578125 103.554688 44.496094 103.542969 44.414062 103.523438 C 35.683594 101.417969 27.695312 96.933594 21.3125 90.546875 C 14.929688 84.164062 10.441406 76.175781 8.335938 67.449219 C 8.199219 66.882812 8.550781 66.3125 9.117188 66.175781 C 9.6875 66.042969 10.253906 66.386719 10.390625 66.953125 C 12.40625 75.304688 16.699219 82.945312 22.808594 89.054688 C 28.914062 95.164062 36.558594 99.457031 44.90625 101.46875 C 45.476562 101.605469 45.824219 102.175781 45.6875 102.746094 C 45.570312 103.230469 45.136719 103.554688 44.660156 103.554688 Z M 44.660156 103.554688 " fill-opacity="1" fill-rule="nonzero"/><path fill="#0b132b" d="M 67.199219 103.554688 C 66.722656 103.554688 66.289062 103.230469 66.175781 102.746094 C 66.039062 102.175781 66.386719 101.605469 66.953125 101.46875 C 75.304688 99.457031 82.945312 95.164062 89.054688 89.054688 C 95.164062 82.945312 99.457031 75.304688 101.46875 66.953125 C 101.605469 66.386719 102.179688 66.042969 102.746094 66.175781 C 103.3125 66.3125 103.660156 66.882812 103.523438 67.449219 C 101.417969 76.175781 96.933594 84.164062 90.546875 90.546875 C 84.164062 96.933594 76.175781 101.417969 67.449219 103.523438 C 67.367188 103.542969 67.28125 103.554688 67.199219 103.554688 Z M 67.199219 103.554688 " fill-opacity="1" fill-rule="nonzero"/></svg>