<svg xmlns="http://www.w3.org/2000/svg" xmlns:xlink="http://www.w3.org/1999/xlink" width="150" zoomAndPan="magnify" viewBox="0 0 112.5 112.499997" height="150" preserveAspectRatio="xMidYMid meet" version="1.0"><defs><clipPath id="9dabd5e317"><path d="M 8 0 L 104 0 L 104 112.003906 L 8 112.003906 Z M 8 0 " clip-rule="nonzero"/></clipPath></defs><g clip-path="url(#9dabd5e317)"><path fill="#0b132b" d="M 100.667969 54.730469 C 100.667969 54.730469 91.765625 59.449219 86.625 69.785156 L 94.550781 68.839844 C 88.140625 83 80.039062 87.558594 73.355469 87.558594 C 66.121094 87.558594 60.53125 82.203125 60.53125 77.914062 L 59.167969 36.375 L 67.050781 36.375 C 67.957031 38.117188 69.785156 39.324219 71.894531 39.324219 C 74.910156 39.324219 77.359375 36.875 77.359375 33.859375 C 77.359375 30.839844 74.910156 28.394531 71.894531 28.394531 C 69.785156 28.394531 67.957031 29.582031 67.050781 31.339844 L 59.003906 31.339844 L 58.816406 25.511719 C 64.578125 24.214844 68.90625 19.058594 68.90625 12.90625 C 68.90625 5.789062 63.117188 0 56 0 C 48.886719 0 43.097656 5.789062 43.097656 12.90625 C 43.097656 19.058594 47.425781 24.214844 53.199219 25.5 L 53.011719 31.328125 L 44.964844 31.328125 C 44.058594 29.582031 42.230469 28.378906 40.121094 28.378906 C 37.105469 28.378906 34.65625 30.828125 34.65625 33.84375 C 34.65625 36.859375 37.105469 39.308594 40.121094 39.308594 C 42.230469 39.308594 44.058594 38.117188 44.964844 36.359375 L 52.835938 36.359375 L 51.46875 77.914062 C 51.46875 82.203125 45.882812 87.558594 38.644531 87.558594 C 31.964844 87.558594 23.875 83 17.449219 68.839844 L 25.375 69.785156 C 20.234375 59.464844 11.320312 54.730469 11.320312 54.730469 C 11.320312 54.730469 6.722656 63.699219 8.398438 75.113281 L 14.488281 69.703125 C 15.542969 80.457031 20.085938 91.847656 39.632812 100.464844 C 48.007812 104.15625 51.605469 105.15625 56 112.003906 C 60.410156 105.15625 64.007812 104.15625 72.367188 100.464844 C 91.914062 91.847656 96.460938 80.445312 97.515625 69.703125 L 103.601562 75.113281 C 105.28125 63.699219 100.667969 54.730469 100.667969 54.730469 Z M 48.628906 12.90625 C 48.628906 8.832031 51.929688 5.53125 56 5.53125 C 60.058594 5.53125 63.375 8.832031 63.375 12.90625 C 63.375 16.960938 60.074219 20.277344 56 20.277344 C 51.941406 20.277344 48.628906 16.976562 48.628906 12.90625 Z M 48.628906 12.90625 " fill-opacity="1" fill-rule="nonzero"/></g></svg>