<svg xmlns="http://www.w3.org/2000/svg" xmlns:xlink="http://www.w3.org/1999/xlink" width="150" zoomAndPan="magnify" viewBox="0 0 112.5 112.499997" height="150" preserveAspectRatio="xMidYMid meet" version="1.0"><defs><clipPath id="4e0482629b"><path d="M 0 0 L 112.003906 0 L 112.003906 112.003906 L 0 112.003906 Z M 0 0 " clip-rule="nonzero"/></clipPath></defs><g clip-path="url(#4e0482629b)"><path fill="#0b132b" d="M 56 112.003906 C 41.042969 112.003906 26.980469 106.175781 16.402344 95.601562 C 5.824219 85.023438 0 70.960938 0 56 C 0 41.042969 5.824219 26.980469 16.402344 16.402344 C 26.980469 5.824219 41.042969 0 56 0 C 70.960938 0 85.023438 5.824219 95.601562 16.402344 C 106.175781 26.980469 112.003906 41.042969 112.003906 56 C 112.003906 70.960938 106.175781 85.023438 95.601562 95.601562 C 85.023438 106.175781 70.960938 112.003906 56 112.003906 Z M 56 3.476562 C 41.972656 3.476562 28.78125 8.9375 18.859375 18.859375 C 8.9375 28.78125 3.476562 41.972656 3.476562 56 C 3.476562 70.03125 8.9375 83.222656 18.859375 93.140625 C 28.78125 103.0625 41.972656 108.527344 56 108.527344 C 70.03125 108.527344 83.222656 103.0625 93.140625 93.140625 C 103.0625 83.222656 108.527344 70.03125 108.527344 56 C 108.527344 41.972656 103.0625 28.78125 93.140625 18.859375 C 83.222656 8.9375 70.03125 3.476562 56 3.476562 Z M 88.253906 23.75 C 87.671875 23.167969 86.765625 23.074219 86.074219 23.523438 L 48.488281 47.980469 C 48.441406 48.011719 48.394531 48.046875 48.347656 48.082031 C 48.347656 48.082031 48.34375 48.085938 48.339844 48.085938 C 48.304688 48.117188 48.269531 48.152344 48.234375 48.183594 C 48.214844 48.199219 48.199219 48.214844 48.1875 48.230469 C 48.152344 48.269531 48.117188 48.304688 48.085938 48.339844 C 48.085938 48.34375 48.085938 48.34375 48.082031 48.347656 C 48.046875 48.390625 48.011719 48.441406 47.980469 48.488281 L 23.523438 86.074219 C 23.074219 86.765625 23.167969 87.671875 23.75 88.253906 C 24.085938 88.585938 24.53125 88.761719 24.980469 88.761719 C 25.308594 88.761719 25.636719 88.667969 25.925781 88.480469 L 63.515625 64.023438 C 63.613281 63.957031 63.707031 63.882812 63.792969 63.792969 C 63.882812 63.707031 63.957031 63.613281 64.023438 63.515625 L 88.480469 25.925781 C 88.925781 25.238281 88.832031 24.332031 88.253906 23.75 Z M 62.277344 59.820312 L 52.179688 49.722656 L 81.089844 30.914062 Z M 62.277344 59.820312 " fill-opacity="1" fill-rule="nonzero"/></g></svg>