<svg xmlns="http://www.w3.org/2000/svg" xmlns:xlink="http://www.w3.org/1999/xlink" width="2000" zoomAndPan="magnify" viewBox="0 0 1500 1499.999933" height="2000" preserveAspectRatio="xMidYMid meet" version="1.0"><defs><clipPath id="081fce83c6"><path d="M 0 41.25 L 1500 41.25 L 1500 1458.75 L 0 1458.75 Z M 0 41.25 " clip-rule="nonzero"/></clipPath></defs><g clip-path="url(#081fce83c6)"><path fill="#f8f6f0" d="M 742.640625 41.308594 C 740.550781 53.523438 743.535156 66.851562 739.507812 78.457031 C 725.765625 82.398438 719.015625 100.015625 728.445312 111.382812 C 732.667969 115.691406 735.042969 125.925781 727.574219 127.992188 C 704.011719 135.351562 685.941406 157.433594 683.394531 181.976562 C 682.894531 190.488281 667.347656 187.375 668.457031 197.390625 C 667.195312 207.863281 685.222656 206.382812 683.152344 216.855469 C 682.566406 241.246094 683.9375 265.695312 682.933594 290.039062 C 668.0625 293.023438 651.949219 296.246094 640.410156 306.761719 C 635.402344 319.4375 644.71875 335.242188 634.878906 346.589844 C 628.976562 358.585938 641.847656 368.015625 649.816406 374.960938 C 659.722656 380.992188 655.847656 394.125 655.539062 403.789062 C 647.636719 408.082031 634.136719 409.910156 634.203125 421.386719 C 637.730469 437.867188 656.371094 445.859375 662.292969 460.863281 C 650.230469 647.410156 640.757812 834.230469 627.5625 1020.644531 C 601.5625 1037.933594 569.683594 1053.960938 537.742188 1044.511719 C 510.523438 1037.042969 494.085938 1012.65625 476.25 992.753906 C 467.191406 981.996094 450.425781 974.046875 437.664062 983.457031 C 422.925781 993.40625 428.015625 1015.417969 415.34375 1026.675781 C 404 1034.316406 395.726562 1015.332031 384.1875 1021.363281 C 365.742188 1033.773438 356.902344 1059.75 333.058594 1064.125 C 314.160156 1069.179688 299.941406 1047.820312 281.214844 1053.285156 C 270.152344 1056.726562 266.191406 1069.136719 263.535156 1079.195312 C 249.992188 1139.507812 217.613281 1194.621094 175.105469 1239.085938 C 126.746094 1287.644531 65.324219 1322.570312 0.144531 1343.0625 C 11.382812 1349.855469 26.253906 1352.597656 39.382812 1349.550781 C 77.507812 1340.207031 107.46875 1312.511719 143.898438 1299.207031 C 159.816406 1292.566406 178.414062 1302.492188 193 1291.738281 C 255.472656 1261.1875 306.25 1211.019531 344.269531 1153.359375 C 360.925781 1129.777344 377.324219 1103.429688 403.472656 1089.511719 C 386.597656 1106.691406 370.050781 1124.527344 358.160156 1145.714844 C 331.160156 1190.960938 300.132812 1235.074219 257.714844 1267.234375 C 240.097656 1279.972656 222.746094 1295.34375 200.863281 1299.785156 C 217.433594 1305.601562 236.964844 1305.996094 254.839844 1308.390625 C 247.894531 1312.132812 241.058594 1319.496094 232.523438 1317.207031 C 210.441406 1312.199219 188.1875 1307.320312 165.542969 1305.820312 C 140.960938 1304.621094 120.601562 1320.34375 100.613281 1332.277344 C 84.542969 1342.945312 67.472656 1351.917969 50.273438 1360.539062 C 76.488281 1374.148438 110 1378.222656 139.417969 1371.121094 C 190.851562 1360.910156 233.617188 1312.65625 289.011719 1325.9375 C 304.511719 1331.601562 321.871094 1325.546875 334.933594 1318.582031 C 316.339844 1315.988281 297.546875 1313.113281 278.6875 1313.417969 C 304.753906 1298.570312 337.699219 1319.40625 363.785156 1303.925781 C 379.679688 1295.78125 397.121094 1291.929688 414.519531 1288.792969 C 446.984375 1262.683594 472.199219 1228.890625 500.359375 1198.421875 C 515.925781 1182.136719 539.460938 1185.164062 559.691406 1186.40625 C 572.039062 1186.601562 571.058594 1172.621094 570.253906 1164.066406 C 568.097656 1143.03125 586.171875 1125.804688 605.007812 1120.253906 C 637.667969 1110.34375 673.722656 1115.375 705.164062 1100.613281 C 734.582031 1087.308594 752.832031 1057.5 783.203125 1045.804688 C 807.722656 1035.832031 837.46875 1042.738281 855.34375 1062.203125 C 881.429688 1089.835938 899.109375 1124.28125 925.546875 1151.742188 C 898.632812 1133.753906 882.734375 1103.921875 857.957031 1083.453125 C 838.816406 1065.554688 811.121094 1052.621094 784.773438 1060.613281 C 751.457031 1070.214844 733.1875 1104.03125 701.15625 1116.226562 C 686.765625 1123.085938 667.015625 1120.839844 657.109375 1135.339844 C 648.074219 1149.714844 653.125 1167.15625 657.761719 1182.09375 C 639.144531 1174.40625 640.5625 1148.84375 624.949219 1138.085938 C 613.429688 1130.945312 597.992188 1136.78125 590.542969 1147.210938 C 577.871094 1162.625 592.328125 1185.925781 578.851562 1200.886719 C 569.050781 1210.683594 556.445312 1199.730469 545.734375 1197.859375 C 527.726562 1192.980469 510.324219 1203.5625 499.261719 1217.128906 C 477.117188 1243.34375 452.101562 1266.949219 426.867188 1290.050781 C 451.691406 1292.492188 474.925781 1302.179688 498.570312 1309.191406 C 525.570312 1298.585938 554.640625 1293.035156 583.664062 1297.28125 C 638.953125 1288.699219 681.996094 1243.84375 738.328125 1238.902344 C 793.199219 1236.007812 836.96875 1276.269531 889.25 1285.304688 C 946.277344 1298.21875 1002.976562 1272.980469 1060.335938 1280.035156 C 1091.515625 1281.714844 1119.648438 1295.953125 1148.195312 1307.035156 C 1168.230469 1307.886719 1188.542969 1304.53125 1208.359375 1301.417969 C 1169.144531 1284.039062 1129.6875 1261.832031 1099.027344 1230.910156 C 1152.265625 1266.644531 1210.449219 1302.136719 1276.078125 1306.40625 C 1303.234375 1303.117188 1330.777344 1289.769531 1358.296875 1299.480469 C 1390.085938 1311.761719 1417.003906 1333.90625 1448.949219 1346.035156 C 1464.820312 1353.351562 1486.398438 1353.175781 1499.769531 1343.03125 C 1455.175781 1330.378906 1413.371094 1308.910156 1375.457031 1282.453125 C 1362.371094 1273.65625 1350.828125 1260.550781 1334.585938 1258.023438 C 1321.933594 1255.648438 1315.183594 1272.4375 1302.425781 1268.800781 C 1289.425781 1265.839844 1287.378906 1250.054688 1277.363281 1243.21875 C 1270.699219 1240.777344 1263.6875 1243.652344 1256.890625 1243.742188 C 1243.195312 1235.902344 1243.871094 1215.429688 1229.523438 1208.355469 C 1219.417969 1203.585938 1209.90625 1211.011719 1201.847656 1216.324219 C 1187.761719 1226.167969 1169.425781 1227.929688 1153.007812 1223.96875 C 1121.542969 1216.761719 1095.828125 1194.679688 1076.773438 1169.464844 C 1045.636719 1128.769531 1027.457031 1075.878906 1035.992188 1024.53125 C 1037.386719 1013.992188 1042.046875 1003.5625 1040.171875 992.785156 C 1038.714844 984.117188 1028.285156 979.066406 1020.445312 982.550781 C 1006.445312 988.648438 1004.679688 1008.222656 989.808594 1012.972656 C 976.679688 1015.539062 965.984375 1004.039062 961.324219 993 C 951.984375 975.429688 963.179688 956.246094 959.78125 938.042969 C 954.839844 917.902344 931.671875 908.972656 912.769531 912.285156 C 883.941406 915.355469 863.753906 937.976562 844.109375 956.769531 C 818.460938 959.492188 792.679688 966.4375 771.820312 982.289062 C 739.464844 1004.238281 718.386719 1041.667969 680.847656 1055.953125 C 712.507812 1034.679688 734.828125 1002.886719 764.332031 979.066406 C 783.6875 964.039062 807.425781 955.046875 831.832031 952.957031 C 843.570312 953.632812 849.925781 942.378906 857.046875 934.929688 C 846.617188 777.066406 837.320312 619.109375 828 461.203125 C 834.140625 446.113281 853.5625 438.382812 857.246094 421.660156 C 856.023438 409.945312 842.371094 408.09375 833.789062 403.785156 C 832.746094 396.117188 832.636719 388.257812 833.789062 380.613281 C 841.847656 370.730469 858.160156 364.480469 858.136719 350.109375 C 847.730469 337.675781 854.21875 321.214844 851.34375 306.714844 C 840.542969 294.433594 822.90625 293.886719 808.644531 288.136719 C 808.230469 264.382812 807.878906 240.605469 807.878906 216.851562 C 806.140625 206.136719 824.449219 208.273438 823.382812 197.429688 C 823.011719 187.0625 806.507812 191.4375 806.902344 180.789062 C 803.351562 157.230469 786.367188 135.894531 763.546875 128.445312 C 755.664062 127.007812 756.925781 116.25 761.5625 111.785156 C 770.445312 102.53125 766.636719 85.289062 754.945312 80.300781 C 752.003906 78.34375 746.386719 78.125 747.257812 73.398438 C 757.882812 71.003906 770.539062 75.183594 779.617188 67.652344 C 767.96875 66.976562 755.292969 64.558594 746.867188 55.847656 C 743.492188 52.039062 746.78125 41.910156 742.644531 41.300781 Z M 748.511719 206.5 C 755.316406 206.460938 762.085938 206.816406 768.707031 208.253906 C 769.535156 229.636719 769.316406 251.128906 768.507812 272.507812 C 753.527344 271.421875 738.503906 271.660156 723.523438 272.640625 C 723.085938 251.191406 722.652344 229.679688 723.152344 208.230469 C 724.394531 207.949219 726.898438 207.359375 728.140625 207.078125 C 734.878906 206.957031 741.710938 206.53125 748.511719 206.496094 Z M 716.011719 208.710938 C 716.273438 230.203125 716.902344 251.78125 716.097656 273.25 C 709.21875 275.582031 702.011719 276.777344 694.824219 277.648438 C 694.261719 256.222656 693.191406 234.558594 695.128906 213.242188 C 700.898438 211.585938 706.800781 210.453125 712.683594 209.277344 C 713.53125 209.125 715.183594 208.84375 716.011719 208.714844 Z M 775.410156 209.058594 C 782.359375 210.910156 790.742188 210.910156 796.425781 215.351562 C 797.253906 236.015625 796.992188 256.789062 796.792969 277.472656 C 789.652344 276.449219 782.535156 275.167969 775.609375 273.1875 C 774.457031 251.847656 775.671875 230.421875 775.410156 209.058594 Z M 808.203125 299.667969 C 819.503906 300.757812 830.917969 304.457031 840.0625 311.253906 C 843.460938 318.828125 841.5625 327.886719 842.214844 336.074219 C 831.109375 332.414062 820.203125 328.015625 808.445312 326.972656 C 806.8125 317.976562 807.355469 308.703125 808.203125 299.667969 Z M 680.019531 300.667969 C 687.445312 301.472656 682.261719 318.109375 683.371094 325.273438 C 672.832031 329.910156 660.203125 331.242188 649.292969 336.097656 C 649.378906 328.0625 649.097656 319.960938 650.210938 311.96875 C 659.027344 305.917969 669.71875 303.171875 680.019531 300.667969 Z M 759.582031 500.734375 C 761.21875 513.253906 761.132812 526.078125 759.78125 538.601562 C 749.308594 538.621094 738.808594 538.925781 728.402344 538.054688 C 728.925781 526.296875 725.332031 510.007812 730.234375 501.015625 C 740.011719 500.558594 749.808594 500.625 759.585938 500.734375 Z M 759.652344 544.261719 C 761.089844 556.738281 761.351562 569.585938 759.652344 582.039062 C 749.265625 582.0625 738.855469 582.386719 728.515625 581.515625 C 728.6875 569.78125 725.53125 553.558594 730.148438 544.5 C 739.96875 543.976562 749.832031 544.195312 759.652344 544.261719 Z M 744.054688 739.078125 C 749.433594 739.085938 754.816406 739.355469 760.175781 739.714844 C 760.9375 753.886719 761.609375 768.324219 759.847656 782.433594 C 749.371094 782.457031 738.855469 782.566406 728.382812 782.019531 C 727.382812 768.042969 728.097656 754 727.96875 739.996094 C 733.304688 739.320312 738.675781 739.070312 744.054688 739.078125 Z M 759.914062 788.074219 C 761.523438 802.164062 760.980469 816.574219 760.152344 830.730469 C 749.4375 831.1875 738.660156 831.386719 727.96875 830.449219 C 729.273438 816.992188 725.136719 799.027344 730.125 788.335938 C 740.03125 787.855469 749.960938 787.964844 759.914062 788.074219 Z M 509.25 1057.820312 C 511.273438 1057.804688 511.757812 1058.210938 507.457031 1059.648438 C 459.617188 1073.125 424.605469 1111.492188 398.257812 1151.664062 C 416.460938 1108.007812 453.671875 1067.457031 501.792969 1058.488281 C 503.65625 1058.257812 507.222656 1057.828125 509.25 1057.8125 Z M 431.246094 1201.25 C 426.21875 1221.675781 414.742188 1240.179688 401.21875 1256.121094 C 389.917969 1268.617188 375.089844 1281.945312 356.886719 1279.699219 C 387.109375 1260.386719 411.410156 1232.996094 430.203125 1202.617188 Z M 745.355469 1254.128906 C 742.550781 1254.117188 739.722656 1254.210938 736.875 1254.421875 C 690.691406 1258.191406 655.21875 1291.851562 611.953125 1304.742188 C 667.328125 1317.460938 728.253906 1342.671875 783.101562 1315.738281 C 808.011719 1304.109375 834.796875 1296.53125 862.296875 1294.898438 C 824.855469 1278.628906 787.417969 1254.324219 745.347656 1254.128906 Z M 1032.058594 1289.199219 C 1022.226562 1289.269531 1012.367188 1289.988281 1002.527344 1291.417969 C 975.855469 1293.527344 949.855469 1300.476562 923.183594 1302.195312 C 943.304688 1313.496094 966.601562 1319.460938 988.335938 1327.691406 C 1001.683594 1330.371094 1015.53125 1338.691406 1029.207031 1333.355469 C 1055.03125 1324.230469 1083.839844 1330.679688 1106.855469 1344.246094 C 1132.550781 1363.382812 1162.992188 1341.28125 1189.035156 1333.746094 C 1178.410156 1328.390625 1165.210938 1327.039062 1154.671875 1320.421875 C 1116.757812 1300.851562 1074.660156 1288.90625 1032.0625 1289.199219 Z M 417.300781 1297.773438 C 415.722656 1297.796875 414.136719 1297.863281 412.546875 1297.972656 C 377.796875 1301.390625 347.875 1321.640625 315.886719 1333.3125 C 335.375 1341.261719 355.234375 1330.285156 375.046875 1331.308594 C 366.488281 1337.796875 354.320312 1337.363281 344.324219 1341.085938 C 357.652344 1350.929688 375.246094 1347.59375 388.441406 1339.234375 C 405.859375 1328.605469 426.65625 1328.042969 446.207031 1331.265625 C 459.46875 1327.085938 474.40625 1322.683594 485.488281 1314.734375 C 463.585938 1306.613281 440.992188 1297.4375 417.292969 1297.773438 Z M 1335.03125 1305.101562 C 1330.886719 1305.128906 1326.707031 1305.582031 1322.519531 1306.53125 C 1304.945312 1308.882812 1288.09375 1314.695312 1270.675781 1317.785156 C 1262.402344 1320.269531 1257.5 1310.382812 1249.445312 1310.773438 C 1223.75 1309.75 1198.777344 1317.351562 1173.320312 1319.398438 C 1187.300781 1327.324219 1204.109375 1330.113281 1219.65625 1325.410156 C 1266.667969 1315.957031 1305.644531 1350.753906 1348.035156 1364.273438 C 1381.917969 1378.277344 1421.847656 1376.378906 1454.296875 1360.464844 C 1430.214844 1349.882812 1407.832031 1336.035156 1385.363281 1322.511719 C 1370.359375 1312.765625 1352.996094 1304.972656 1335.03125 1305.101562 Z M 561.5 1305.25 C 555.410156 1305.207031 549.253906 1305.628906 543.019531 1306.636719 C 512.839844 1311.144531 485.183594 1325.492188 457.488281 1337.253906 C 486.363281 1346.703125 513.730469 1361.792969 544.152344 1365.800781 C 568.519531 1359.09375 592.515625 1347.507812 618.558594 1349.859375 C 641.441406 1353.519531 665.308594 1342.632812 685.320312 1336.164062 C 643.539062 1328.847656 604.125 1305.5625 561.5 1305.25 Z M 870.710938 1305.925781 C 866.085938 1305.914062 861.410156 1306.164062 856.683594 1306.722656 C 832.96875 1309.511719 809.476562 1316.394531 788.339844 1327.34375 C 830.886719 1336.140625 868.027344 1363.882812 912.207031 1366.214844 C 940.972656 1368.171875 967.601562 1355.519531 993.882812 1345.789062 C 995.1875 1344.785156 1001.265625 1343.808594 998.433594 1341.566406 C 955.710938 1330.890625 915.425781 1306.050781 870.710938 1305.925781 Z M 1232.675781 1332.636719 C 1231.488281 1332.648438 1230.292969 1332.699219 1229.097656 1332.789062 C 1199.65625 1336.46875 1173.640625 1351.953125 1145.746094 1360.945312 C 1186.03125 1378.539062 1226.507812 1397.828125 1270.269531 1405.058594 C 1301.167969 1409.804688 1334.179688 1404.363281 1361.269531 1388.816406 C 1333.941406 1377.863281 1308.269531 1363.378906 1282.679688 1348.921875 C 1267.148438 1340.960938 1250.484375 1332.464844 1232.675781 1332.636719 Z M 264.421875 1332.765625 C 220.085938 1342.195312 185.769531 1375.707031 143.460938 1390.882812 C 168.785156 1405.296875 200.121094 1409.433594 228.796875 1403.925781 C 272.390625 1395.609375 312.367188 1375.382812 351.734375 1355.804688 C 323.46875 1345.941406 294.75 1333.09375 264.414062 1332.765625 Z M 764.183594 1334.21875 C 759.53125 1334.113281 754.800781 1334.347656 749.972656 1334.988281 C 718.417969 1338.472656 687.738281 1347.222656 657.296875 1355.824219 C 704.917969 1373.15625 750.230469 1399.679688 801.117188 1406.582031 C 834.0625 1411.328125 862.757812 1390.886719 890.460938 1376.40625 C 846.632812 1368.097656 809.15625 1335.234375 764.183594 1334.21875 Z M 1057.5 1339.820312 C 1051.582031 1339.609375 1045.566406 1340.128906 1039.464844 1341.5625 C 1004.625 1350.054688 973.984375 1370.261719 942.261719 1385.984375 C 977.359375 1407.648438 1016.207031 1426.898438 1058.273438 1428.03125 C 1102.738281 1429.402344 1145.347656 1414.269531 1186.433594 1399.070312 C 1167.644531 1388.398438 1147.675781 1379.105469 1129.191406 1367.605469 C 1107.074219 1355.277344 1083.148438 1340.726562 1057.492188 1339.820312 Z M 423.316406 1340 C 418.3125 1339.972656 413.222656 1340.460938 408.019531 1341.585938 C 365.582031 1356.285156 330.652344 1386.398438 289.957031 1404.949219 C 323.25 1418.90625 359.71875 1429.621094 396.0625 1422.894531 C 440.351562 1414.726562 482.398438 1395.804688 522.03125 1375.773438 C 488.992188 1365.636719 458.339844 1340.179688 423.316406 1339.996094 Z M 608.332031 1364.023438 C 603.320312 1364.128906 598.25 1364.582031 593.105469 1365.429688 C 563.601562 1370.589844 537.40625 1385.960938 510.386719 1398.023438 C 492.769531 1406.972656 474.046875 1413.59375 456.691406 1423.019531 C 462.222656 1423.371094 467.992188 1422.78125 473.261719 1424.9375 C 522.820312 1444.882812 575.582031 1458.863281 629.316406 1458.734375 C 681.140625 1458.863281 732.113281 1446.039062 780.148438 1427.355469 C 768.695312 1420.476562 755.105469 1417.90625 743.128906 1411.894531 C 699.441406 1394.097656 656.769531 1362.976562 608.332031 1364.023438 Z M 608.332031 1364.023438 " fill-opacity="1" fill-rule="nonzero"/></g></svg>