<svg xmlns="http://www.w3.org/2000/svg" xmlns:xlink="http://www.w3.org/1999/xlink" width="2000" zoomAndPan="magnify" viewBox="0 0 1500 1499.999933" height="2000" preserveAspectRatio="xMidYMid meet" version="1.0"><path fill="#f8f6f0" d="M 733.71875 83.074219 C 716.769531 74.101562 709.128906 54.164062 713.445312 37.21875 C 719.761719 12.960938 745.679688 0 768.941406 11.296875 C 784.226562 18.609375 795.523438 38.546875 790.539062 55.828125 C 787.21875 67.789062 779.574219 76.761719 767.945312 83.074219 C 766.613281 83.738281 766.613281 84.402344 768.277344 84.738281 C 828.421875 96.367188 871.289062 138.238281 889.566406 196.390625 C 892.222656 204.695312 890.230469 211.675781 883.917969 217.324219 C 882.917969 217.988281 881.921875 218.652344 880.59375 218.652344 L 866.96875 218.320312 C 865.972656 218.320312 865.308594 218.984375 865.308594 219.980469 L 865.640625 331.636719 C 865.640625 332.300781 866.304688 332.632812 866.636719 332.632812 C 877.269531 332.632812 887.902344 332.300781 898.871094 332.300781 C 910.167969 332.300781 916.148438 337.949219 916.148438 349.910156 C 916.148438 370.183594 916.148438 389.453125 916.480469 408.0625 C 916.480469 415.042969 910.832031 420.359375 904.1875 420.691406 C 904.1875 420.691406 903.855469 420.691406 903.855469 420.691406 C 881.921875 420.359375 861.320312 420.027344 842.710938 420.359375 C 753.988281 420.691406 673.238281 420.359375 600.796875 420.027344 C 591.824219 420.027344 587.503906 415.042969 587.503906 405.40625 C 587.503906 385.46875 587.503906 365.863281 587.503906 346.589844 C 587.503906 338.28125 594.152344 333.628906 601.792969 333.628906 C 613.425781 333.628906 624.722656 333.960938 635.6875 333.960938 C 638.015625 333.960938 639.011719 332.964844 639.011719 330.636719 L 638.679688 217.988281 C 638.679688 216.992188 638.015625 216.328125 637.019531 216.328125 C 634.027344 216.328125 630.703125 216.660156 627.714844 217.324219 C 619.074219 219.316406 612.09375 211.675781 613.09375 203.699219 C 614.089844 194.394531 617.078125 184.09375 622.066406 172.796875 C 642.335938 126.605469 683.871094 94.039062 733.71875 85.070312 C 735.046875 84.402344 735.046875 83.738281 733.71875 83.074219 Z M 682.542969 221.3125 C 682.542969 221.644531 682.542969 222.308594 682.542969 222.640625 L 682.542969 331.300781 C 682.542969 332.300781 683.539062 333.296875 684.535156 333.296875 L 819.449219 332.632812 C 821.445312 332.632812 822.109375 331.636719 822.109375 329.972656 L 821.777344 227.625 C 821.777344 219.316406 817.457031 215.328125 809.480469 215.328125 C 773.925781 215.328125 734.382812 215.328125 691.183594 215.328125 C 686.863281 215.328125 683.207031 216.992188 682.542969 221.3125 Z M 682.542969 221.3125 " fill-opacity="1" fill-rule="nonzero"/><path fill="#f8f6f0" d="M 957.355469 1409.28125 C 958.019531 1412.273438 959.679688 1413.933594 962.339844 1414.265625 C 1005.539062 1421.246094 1045.414062 1430.882812 1081.96875 1442.84375 C 1096.589844 1447.496094 1136.132812 1461.121094 1132.476562 1481.722656 C 1130.484375 1493.023438 1121.84375 1500 1110.546875 1500 C 871.621094 1500 632.367188 1500 392.113281 1500 C 368.851562 1500 363.867188 1471.421875 381.8125 1460.125 C 396.433594 1450.820312 414.378906 1443.507812 436.308594 1437.527344 C 462.5625 1430.550781 489.476562 1424.234375 517.058594 1418.917969 C 526.363281 1416.925781 535.667969 1415.597656 545.304688 1414.929688 C 546.632812 1414.929688 547.628906 1413.601562 547.960938 1412.273438 C 549.625 1394.328125 551.285156 1376.050781 553.277344 1358.109375 C 555.273438 1338.503906 556.933594 1320.226562 558.261719 1303.945312 C 563.246094 1241.804688 568.230469 1179 573.550781 1115.863281 C 576.539062 1078.3125 581.855469 1038.105469 584.183594 1001.550781 C 587.503906 948.050781 590.828125 901.859375 593.820312 862.316406 C 596.144531 832.742188 599.800781 802.503906 602.460938 773.261719 C 609.4375 687.527344 614.753906 604.453125 624.390625 514.398438 C 626.050781 499.113281 626.382812 484.160156 627.714844 468.875 C 628.046875 465.550781 630.703125 462.894531 634.359375 462.894531 L 868.632812 462.894531 C 872.617188 462.894531 875.941406 465.882812 876.273438 469.871094 C 881.589844 533.007812 887.238281 597.140625 892.890625 662.605469 C 896.542969 705.140625 899.867188 747.339844 903.191406 789.875 C 907.511719 847.363281 912.828125 904.851562 918.144531 962.339844 C 920.46875 988.921875 922.132812 1018.164062 924.457031 1046.078125 C 933.761719 1155.074219 943.066406 1264.398438 952.703125 1373.394531 C 953.367188 1384.691406 955.027344 1396.988281 957.355469 1409.28125 Z M 778.578125 589.5 C 778.578125 575.875 767.28125 564.578125 753.65625 564.910156 L 749.667969 564.910156 C 736.042969 564.910156 724.746094 576.207031 725.078125 589.832031 L 725.410156 634.027344 C 725.410156 647.652344 736.707031 658.949219 750.332031 658.617188 L 754.320312 658.617188 C 767.945312 658.617188 779.242188 647.320312 778.910156 633.695312 Z M 725.078125 852.347656 C 724.746094 886.90625 778.910156 885.910156 778.578125 856.335938 C 778.578125 846.367188 778.578125 836.066406 778.910156 825.433594 C 779.242188 813.136719 777.914062 804.164062 774.589844 798.183594 C 764.953125 780.238281 738.039062 779.90625 728.402344 798.183594 C 725.742188 802.835938 724.746094 809.480469 724.746094 817.125 C 725.410156 829.75 725.410156 841.382812 725.078125 852.347656 Z M 778.910156 1031.125 C 778.910156 997.5625 729.066406 993.574219 726.40625 1027.46875 C 725.078125 1042.089844 724.746094 1058.375 725.742188 1076.316406 C 726.738281 1096.589844 743.355469 1102.902344 760.964844 1099.578125 C 773.261719 1097.253906 779.574219 1089.609375 779.242188 1076.316406 C 778.910156 1061.363281 778.910156 1046.410156 778.910156 1031.125 Z M 709.128906 1408.285156 L 794.859375 1408.285156 C 796.855469 1408.285156 798.183594 1406.625 798.183594 1404.960938 L 798.183594 1312.914062 C 798.183594 1286 777.582031 1264.066406 752.324219 1264.066406 L 751.660156 1264.066406 C 726.40625 1264.066406 705.804688 1286 705.804688 1312.914062 L 705.804688 1404.960938 C 705.804688 1406.957031 707.132812 1408.285156 709.128906 1408.285156 Z M 709.128906 1408.285156 " fill-opacity="1" fill-rule="nonzero"/></svg>