<svg xmlns="http://www.w3.org/2000/svg" xmlns:xlink="http://www.w3.org/1999/xlink" width="2000" zoomAndPan="magnify" viewBox="0 0 1500 1499.999933" height="2000" preserveAspectRatio="xMidYMid meet" version="1.0"><path fill="#f8f6f0" d="M 79.789062 1498.886719 C 81.121094 1498.335938 109.648438 1491.238281 143.179688 1483.117188 L 204.148438 1468.347656 L 206.335938 1418.253906 L 241.3125 1415.542969 C 330.746094 1408.601562 494.355469 1395.0625 509.089844 1393.386719 C 519.445312 1392.203125 522.261719 1391.429688 516.742188 1391.277344 C 470.363281 1390.007812 293.46875 1381.332031 292.460938 1380.277344 C 291.171875 1378.9375 292.199219 1361.308594 305.792969 1151.5625 C 309.453125 1095.054688 318.257812 958.476562 325.359375 848.0625 C 332.457031 737.644531 338.789062 646.78125 339.421875 646.148438 C 341.328125 644.242188 359.179688 641.378906 391.878906 637.730469 C 433.941406 633.035156 552.035156 631.144531 600.910156 634.382812 C 635.054688 636.644531 695.101562 642.851562 696.554688 644.265625 C 697.269531 644.960938 715.175781 915.871094 725.539062 1082.703125 C 726.769531 1102.542969 730.683594 1164.511719 734.234375 1220.417969 C 737.785156 1276.324219 741.769531 1341.246094 743.089844 1364.691406 C 744.410156 1388.136719 745.835938 1408.429688 746.261719 1409.792969 C 746.773438 1411.429688 759.824219 1412.777344 784.910156 1413.773438 C 805.742188 1414.601562 824.476562 1415.757812 826.542969 1416.34375 C 829.765625 1417.253906 830.386719 1420.972656 830.914062 1442.683594 L 831.527344 1467.960938 L 893.644531 1482.996094 C 927.808594 1491.269531 956.257812 1498.527344 956.855469 1499.128906 C 957.457031 1499.726562 759.820312 1500.140625 517.65625 1500.046875 C 275.496094 1499.953125 78.453125 1499.425781 79.789062 1498.875 Z M 337.621094 605.859375 C 334.160156 575.261719 317.171875 550.191406 296.082031 544.550781 L 286.113281 541.886719 L 286.113281 526.097656 C 286.113281 511.386719 286.449219 510.257812 291.03125 509.609375 C 295.9375 508.910156 295.949219 508.804688 296.539062 461.363281 L 297.128906 413.820312 L 308.015625 413.820312 C 314.003906 413.820312 318.902344 414.613281 318.902344 415.585938 C 318.902344 416.558594 326.027344 416.28125 334.734375 414.972656 C 346.777344 413.160156 350.738281 411.691406 351.289062 408.832031 C 351.855469 405.878906 354.34375 405.074219 362.910156 405.074219 C 370.136719 405.074219 373.320312 405.867188 372.355469 407.429688 C 371.414062 408.953125 373.101562 409.53125 377.144531 409.070312 C 382.921875 408.40625 383.4375 407.582031 384.054688 397.972656 L 384.71875 387.589844 L 369.179688 387.589844 L 369.179688 361.769531 L 391.039062 358.761719 L 391.039062 221.625 L 381.75 219.234375 C 357.5625 213 351.691406 209.765625 351.691406 202.652344 C 351.691406 201.1875 384.398438 174.640625 424.375 143.664062 C 464.351562 112.6875 497.550781 86.945312 498.148438 86.460938 C 498.75 85.980469 499.734375 74.601562 500.335938 61.175781 L 501.429688 36.761719 L 509.625 31.46875 C 517.320312 26.5 517.824219 25.488281 517.855469 15.0625 C 517.878906 8.953125 518.84375 2.476562 520.011719 0.675781 C 521.484375 -1.609375 522.140625 2.203125 522.164062 13.242188 C 522.1875 25.097656 522.941406 29.09375 525.15625 29.09375 C 526.785156 29.09375 530.71875 31.503906 533.898438 34.453125 C 539.441406 39.585938 539.683594 40.769531 539.683594 62.554688 L 539.683594 85.296875 L 573.019531 111.46875 C 591.355469 125.863281 624.304688 151.335938 646.246094 168.070312 C 680.746094 194.390625 686.136719 199.304688 686.140625 204.453125 C 686.140625 209.761719 684.910156 210.75 674.667969 213.636719 C 668.355469 215.417969 659.5 217.519531 654.992188 218.3125 L 646.796875 219.753906 L 646.796875 359.167969 L 654.269531 359.167969 C 667.414062 359.167969 668.65625 360.507812 668.65625 374.703125 L 668.65625 387.585938 L 653.113281 387.585938 L 653.78125 397.949219 C 654.304688 406.097656 655.335938 408.480469 658.605469 409.101562 C 660.894531 409.539062 663.515625 408.550781 664.4375 406.90625 C 666.988281 402.34375 685.441406 404.339844 686.742188 409.316406 C 687.519531 412.289062 691.0625 413.492188 702.46875 414.660156 C 710.5625 415.492188 718.320312 415.300781 719.699219 414.242188 C 721.082031 413.183594 726.390625 412.757812 731.5 413.296875 L 740.789062 414.277344 L 740.789062 460.789062 C 740.789062 505.460938 740.964844 507.347656 745.164062 508.445312 C 749.042969 509.460938 749.535156 511.425781 749.535156 525.945312 L 749.535156 542.300781 L 742.140625 543.6875 C 719.8125 547.875 700.75 575.773438 698.695312 607.269531 C 698.085938 616.617188 697.363281 618.132812 693.703125 617.742188 C 691.347656 617.492188 676.140625 615.785156 659.914062 613.953125 C 603.097656 607.535156 525.140625 605.171875 462.589844 607.976562 C 412.105469 610.238281 357.546875 614.910156 343.777344 618.144531 C 339.546875 619.140625 339.003906 618.054688 337.621094 605.851562 Z M 342.402344 500.121094 L 351.691406 498.691406 L 351.691406 463.488281 L 340.214844 464.867188 C 333.902344 465.625 326.527344 466.253906 323.820312 466.265625 C 319.101562 466.28125 318.902344 467.050781 318.902344 485.109375 L 318.902344 503.933594 L 326.007812 502.742188 C 329.914062 502.085938 337.292969 500.90625 342.402344 500.117188 Z M 718.933594 486.085938 C 718.933594 476.539062 718.195312 468.300781 717.292969 467.777344 C 716.390625 467.25 709.011719 466.132812 700.898438 465.285156 L 686.140625 463.75 L 686.140625 498.808594 L 695.433594 500.003906 C 704.308594 501.148438 713.78125 502.511719 717.292969 503.148438 C 718.195312 503.3125 718.933594 495.636719 718.933594 486.089844 Z M 380.894531 480.066406 C 382.335938 463.027344 380.796875 457.722656 375.40625 461.140625 C 373.355469 462.441406 372.464844 468.128906 372.464844 479.949219 C 372.464844 494.042969 373.054688 496.894531 375.96875 496.890625 C 378.757812 496.890625 379.765625 493.449219 380.894531 480.066406 Z M 664.675781 479.394531 C 665.308594 463.917969 664.949219 461.902344 661.5625 461.90625 C 658.238281 461.914062 657.738281 464.203125 657.738281 479.402344 C 657.738281 493.070312 658.417969 496.886719 660.851562 496.886719 C 663.226562 496.886719 664.132812 492.738281 664.675781 479.394531 Z M 347.886719 449.613281 C 350.863281 448.75 351.714844 446.109375 351.714844 437.722656 C 351.714844 425.613281 352.421875 425.925781 332.765625 429.347656 L 318.925781 431.757812 L 318.925781 453.671875 L 331.492188 452.199219 C 338.40625 451.386719 345.785156 450.222656 347.886719 449.613281 Z M 718.953125 442.414062 C 718.953125 430.472656 719.863281 431.0625 696.546875 427.867188 L 686.164062 426.441406 L 686.164062 450.746094 L 696.546875 451.5625 C 721.253906 453.511719 718.953125 454.453125 718.953125 442.414062 Z M 382.316406 434.589844 C 382.316406 427.976562 381.578125 422.582031 380.675781 422.601562 C 376.226562 422.691406 374.003906 426.78125 373.261719 436.230469 C 372.511719 445.789062 372.839844 446.613281 377.382812 446.613281 C 381.90625 446.613281 382.316406 445.613281 382.316406 434.589844 Z M 664.65625 435.886719 C 664.074219 427.535156 662.988281 424.917969 659.734375 424.066406 C 656.007812 423.09375 655.5625 424.238281 655.5625 434.792969 C 655.5625 445.59375 655.984375 446.613281 660.480469 446.613281 C 665.011719 446.613281 665.339844 445.777344 664.65625 435.886719 Z M 460.464844 348.257812 L 467.570312 348.242188 L 467.570312 300.152344 L 455.867188 300.152344 C 449.429688 300.152344 438.117188 300.785156 430.730469 301.558594 L 417.292969 302.960938 L 417.292969 351.078125 L 435.328125 349.675781 C 445.246094 348.902344 456.558594 348.265625 460.464844 348.257812 Z M 620.585938 326.703125 L 620.585938 302.980469 L 603.859375 301.566406 C 594.664062 300.789062 583.351562 300.152344 578.722656 300.152344 L 570.308594 300.152344 L 570.308594 348.035156 L 583.972656 348.8125 C 591.484375 349.238281 602.796875 349.777344 609.109375 350.011719 L 620.585938 350.429688 Z M 557.191406 323.105469 L 557.191406 297.96875 L 478.5 297.96875 L 478.5 321.648438 C 478.5 334.671875 479.15625 345.984375 479.957031 346.785156 C 480.757812 347.585938 498.464844 348.242188 519.304688 348.242188 L 557.191406 348.242188 Z M 447.347656 288 L 467.570312 286.472656 L 467.570312 238.324219 L 443.078125 239.875 C 429.609375 240.726562 417.765625 241.933594 416.757812 242.554688 C 415.75 243.179688 415.394531 247.785156 415.972656 252.792969 C 416.546875 257.800781 417.082031 268.644531 417.15625 276.890625 C 417.285156 291.300781 417.484375 291.835938 422.210938 290.707031 C 424.914062 290.058594 436.226562 288.839844 447.347656 288 Z M 620.585938 266.585938 L 620.585938 241.765625 L 605.832031 240.371094 C 597.714844 239.605469 586.402344 238.972656 580.691406 238.964844 L 570.308594 238.949219 L 570.308594 286.691406 L 583.972656 287.957031 C 591.484375 288.652344 600.585938 289.566406 604.191406 289.988281 C 622.136719 292.085938 620.585938 294.296875 620.585938 266.589844 Z M 557.191406 261.480469 L 557.191406 236.660156 L 479.59375 237.855469 L 478.960938 259.558594 C 478.613281 271.496094 478.742188 282.316406 479.246094 283.605469 C 479.84375 285.136719 493.476562 286.007812 518.675781 286.125 L 557.191406 286.300781 Z M 1310.253906 467.949219 C 1250.140625 457.351562 1132.589844 436.84375 1049.03125 422.375 C 965.472656 407.90625 866.613281 390.757812 829.34375 384.277344 C 792.074219 377.792969 743.875 369.472656 722.234375 365.789062 C 700.589844 362.109375 680.917969 358.664062 678.511719 358.136719 C 674.304688 357.214844 674.140625 355.402344 674.140625 309.449219 L 674.140625 261.722656 L 840.273438 233.949219 C 931.648438 218.675781 1099.289062 190.449219 1212.824219 171.226562 C 1326.359375 152.003906 1419.570312 136.597656 1419.957031 136.984375 C 1420.347656 137.375 1420.414062 216.335938 1420.105469 312.453125 L 1419.546875 487.214844 Z M 1310.253906 467.949219 " fill-opacity="1" fill-rule="nonzero"/></svg>